<svg width="69" height="63" viewBox="0 0 69 63" fill="none" xmlns="http://www.w3.org/2000/svg">
<g clip-path="url(#clip0_4040_25158)">
<path d="M23.2108 51.6572V46.0635H20.4529V44.3384H28.2862V46.0635H25.5283V51.6572H23.2108Z" fill="#00338D"/>
<path d="M32.9947 51.6572V46.0635H30.2405V44.3384H38.0738V46.0635H35.3159V51.6572H32.9947Z" fill="#00338D"/>
<path d="M11.3535 51.6572V44.3384H16.6066C17.31 44.3384 17.9319 44.5679 18.4169 45.0269C18.9055 45.4823 19.1536 46.0968 19.1536 46.7965C19.1536 47.4962 18.9055 48.1107 18.4169 48.5697C17.9319 49.0325 17.31 49.2694 16.6066 49.2657H13.6709V51.6609H11.3535V51.6572ZM13.6709 47.5332H16.6066C16.8694 47.5332 17.0064 47.4665 17.099 47.3703C17.1915 47.2703 17.2618 47.0926 17.2618 46.7928C17.2618 46.5003 17.1915 46.3263 17.1027 46.2264C17.0101 46.1301 16.8694 46.0672 16.6103 46.0635H13.6746V47.5332H13.6709Z" fill="#00338D"/>
<path d="M49.199 51.6572V44.3384H54.4558C55.1591 44.3384 55.7811 44.5679 56.266 45.0269C56.7547 45.4823 57.0027 46.0968 57.0027 46.7965C57.0027 47.4962 56.7547 48.1107 56.266 48.5697C55.7811 49.0325 55.1591 49.2694 54.4558 49.2657H51.5201V51.6609H49.2027L49.199 51.6572ZM51.5164 47.5332H54.4521C54.7112 47.5332 54.8519 47.4665 54.9444 47.3703C55.037 47.2703 55.1036 47.0926 55.1036 46.7928C55.1036 46.5003 55.037 46.3263 54.9444 46.2264C54.8519 46.1301 54.7112 46.0672 54.4521 46.0635H51.5164V47.5332Z" fill="#00338D"/>
<path d="M43.2825 51.6572C42.394 51.6572 41.5019 51.4277 40.8725 50.8835C40.3765 50.4467 40.0803 49.7322 40.0803 48.9992V44.3347H47.5842L46.9067 46.0598H42.3422V47.0334H46.518L45.8702 48.6697H42.3422V48.9992C42.3496 49.3065 42.4052 49.4619 42.6236 49.6396C42.8605 49.8247 43.1307 49.9247 43.5861 49.9284H47.4435V51.6572H43.2862H43.2825Z" fill="#00338D"/>
<path d="M39.0141 27.2391C37.7443 26.0211 36.1784 24.0998 35.5565 23.0892C34.4533 21.2752 34.1719 19.6945 34.1719 19.6945C34.1719 19.6945 33.8795 21.2826 32.7652 23.0892C31.7175 24.7921 29.8703 26.6986 29.2631 27.3094C28.0045 28.5644 27.2271 30.3006 27.2271 32.2182C27.2271 36.0534 30.3367 39.1631 34.1719 39.1631C38.0072 39.1631 41.1168 36.0534 41.1168 32.2182C41.1168 30.2636 40.3209 28.494 39.0141 27.2391ZM34.1682 37.8933C31.0364 37.8933 28.4931 35.3501 28.4931 32.2182C28.4931 29.0863 31.0364 26.5431 34.1682 26.5431C37.3001 26.5431 39.8433 29.0826 39.8433 32.2182C39.8433 35.3538 37.3038 37.8933 34.1682 37.8933Z" fill="#00338D"/>
<path d="M39.8468 32.2182C39.8468 35.3538 37.3073 37.8933 34.1717 37.8933C31.0361 37.8933 28.4966 35.3501 28.4966 32.2182C28.4966 29.0863 31.0398 26.5431 34.1717 26.5431C37.3035 26.5431 39.8468 29.0826 39.8468 32.2182Z" fill="#FF0000"/>
<path d="M36.7333 11.3502C35.4339 14.4858 34.6898 16.3664 34.9378 19.0392C35.2044 21.886 37.1442 24.1738 38.9211 26.084C40.3575 27.624 41.2238 28.5977 41.6199 30.3672C41.8975 31.5926 42.2159 34.1913 40.3723 36.6865C38.1696 39.6739 34.6121 39.7813 34.6121 39.7813V40.6809C34.6121 40.6809 38.8508 40.5106 41.7383 37.8933C43.73 36.083 44.4371 34.506 44.959 32.0701C45.4033 29.997 44.8702 27.0465 43.5782 24.7772C42.8526 23.5001 42.0567 22.4376 41.2941 21.5528C39.7874 19.8018 38.7101 18.632 37.755 17.2326C36.8703 15.9407 36.3224 14.8449 36.3224 13.7084C36.3224 12.5719 36.7666 11.4428 36.7666 11.4428L36.737 11.3502H36.7333Z" fill="#009FDA"/>
<path d="M31.6064 11.3502C32.9095 14.4858 33.6536 16.3664 33.4018 19.0392C33.139 21.886 31.1992 24.1738 29.4185 26.084C27.9859 27.624 27.1159 28.5977 26.7198 30.3672C26.4422 31.5926 26.1275 34.1913 27.9674 36.6865C30.17 39.6739 33.7276 39.7813 33.7276 39.7813V40.6809C33.7276 40.6809 29.4852 40.5106 26.605 37.8933C24.6097 36.083 23.9026 34.506 23.3843 32.0701C22.9401 29.997 23.4732 27.0465 24.7652 24.7772C25.4908 23.5001 26.2904 22.4376 27.0493 21.5528C28.556 19.8018 29.6332 18.632 30.5884 17.2326C31.4731 15.9407 32.021 14.8449 32.021 13.7084C32.021 12.5719 31.5805 11.4428 31.5805 11.4428L31.6064 11.3502Z" fill="#009FDA"/>
<mask id="mask0_4040_25158" style="mask-type:luminance" maskUnits="userSpaceOnUse" x="28" y="26" width="12" height="12">
<path d="M39.8468 32.2182C39.8468 35.3538 37.3073 37.8933 34.1717 37.8933C31.0361 37.8933 28.4966 35.3501 28.4966 32.2182C28.4966 29.0863 31.0398 26.5431 34.1717 26.5431C37.3035 26.5431 39.8468 29.0826 39.8468 32.2182Z" fill="white"/>
</mask>
<g mask="url(#mask0_4040_25158)">
<path d="M37.7399 36.1089H37.1476V37.686H36.0703V36.1089H32.2684V37.686H31.1949V36.1089H30.6025V35.0835H37.7399V36.1089Z" fill="white"/>
<path d="M32.3162 32.0441V31.6295H36.0218V32.0441H32.3162Z" fill="white"/>
<path d="M31.6718 35.9313H31.4534V35.9128L33.0526 26.3728L33.4635 26.4394L31.868 35.9646L31.6718 35.9313Z" fill="white"/>
<path d="M34.8779 26.4394L35.2888 26.3728L36.8844 35.9128V35.9313H36.666L36.4735 35.9646L34.8779 26.4394Z" fill="white"/>
<path d="M32.649 28.5791L34.1113 26.2506L34.4519 26.4653L32.9896 28.7939L32.6416 28.5717L32.649 28.5791Z" fill="white"/>
<path d="M35.6886 28.5791L34.23 26.2506L33.8857 26.4653L35.348 28.7939L35.6997 28.5717L35.6886 28.5791Z" fill="white"/>
<path d="M33.8862 29.2307L34.2305 28.9974L36.0519 31.6777L35.7113 31.9072L33.8862 29.2307Z" fill="white"/>
<path d="M34.456 29.2307L34.1117 28.9974L32.2866 31.6777L32.6309 31.9072L34.456 29.2307Z" fill="white"/>
<path d="M31.5825 35.3019L34.1184 31.7258L34.4552 31.9665L31.9231 35.5426L31.5825 35.3019Z" fill="white"/>
<path d="M33.8857 31.9665L34.2226 31.7258L36.7548 35.3019L36.4179 35.5426L33.8857 31.9665Z" fill="white"/>
<path d="M36.4886 28.3682H31.8538V29.3048H36.4886V28.3682Z" fill="white"/>
</g>
<path d="M35.7343 26.5986H32.658V25.7472H33.4761L33.676 24.6958H34.72L34.9199 25.7472H35.7343V26.5986Z" fill="white"/>
<path d="M33.4246 26.6688L33.4653 26.4393L33.0544 26.3727L32.9878 26.7577L33.4246 26.6688Z" fill="white"/>
<path d="M34.9201 26.6688L34.8794 26.4393L35.2903 26.3727L35.3532 26.7577L34.9201 26.6688Z" fill="white"/>
</g>
<defs>
<clipPath id="clip0_4040_25158">
<rect width="68.3493" height="63" fill="white"/>
</clipPath>
</defs>
</svg>
